<?xml version="1.0" encoding="utf-8"?>
<!-- Generator: Adobe Illustrator 28.0.0, SVG Export Plug-In . SVG Version: 6.00 Build 0)  -->
<svg version="1.1" id="Capa_1" xmlns="http://www.w3.org/2000/svg" xmlns:xlink="http://www.w3.org/1999/xlink" x="0px" y="0px"
	 viewBox="0 0 10 10" style="enable-background:new 0 0 10 10;" xml:space="preserve">
<style type="text/css">
	.st0{fill:#004000;}
</style>
<path class="st0" d="M6.2,5c0.1,0.1,0.2,0.1,0.2,0.1c1.1,1.1,2.2,2.2,3.4,3.4c0.4,0.4,0.4,0.8,0.1,1.2C9.6,10,9,10.1,8.7,9.8
	C8.6,9.8,8.5,9.7,8.5,9.6C7.2,8.3,5.9,7,4.5,5.7c-0.5-0.5-0.5-0.9,0-1.4c1.3-1.3,2.7-2.7,4-4c0.4-0.4,0.8-0.4,1.2-0.1
	c0.4,0.3,0.4,0.8,0.1,1.2C9.8,1.4,9.7,1.5,9.6,1.5C8.6,2.6,7.5,3.7,6.4,4.8C6.3,4.9,6.2,4.9,6.2,5L6.2,5z"/>
<path class="st0" d="M3.9,5C3.8,4.9,3.7,4.9,3.7,4.8C2.5,3.7,1.4,2.6,0.3,1.5c-0.4-0.4-0.4-0.8-0.1-1.2C0.5,0,1-0.1,1.3,0.2
	c0.1,0.1,0.1,0.1,0.2,0.2C2.8,1.7,4.2,3,5.5,4.3C6,4.8,6,5.2,5.5,5.7c-1.3,1.3-2.7,2.7-4,4C1.1,10,0.7,10.1,0.3,9.8
	C0,9.5-0.1,9,0.2,8.6c0.1-0.1,0.1-0.1,0.2-0.2c1.1-1.1,2.2-2.2,3.3-3.3C3.7,5.1,3.8,5.1,3.9,5L3.9,5z"/>
</svg>
