<?xml version="1.0" encoding="utf-8"?>
<!-- Generator: Adobe Illustrator 28.0.0, SVG Export Plug-In . SVG Version: 6.00 Build 0)  -->
<svg version="1.1" id="Capa_1" xmlns="http://www.w3.org/2000/svg" xmlns:xlink="http://www.w3.org/1999/xlink" x="0px" y="0px"
	 viewBox="0 0 250 250" style="enable-background:new 0 0 250 250;" xml:space="preserve">
<style type="text/css">
	.st0{fill-rule:evenodd;clip-rule:evenodd;}
	.st1{fill-rule:evenodd;clip-rule:evenodd;fill:#004000;}
</style>
<rect class="st0" width="250" height="250"/>
<g>
	<path class="st1" d="M99.1,94.3c-0.1-3.3-0.8-3.7-1.5-6.5c-0.6-2.4-1.3-3.7-1.1-6.5c0.6,0.2,0.7,1.1,1,1.7c0.7,2,1.9,3.9,2.9,5.7
		c1.2,2,2.8,5,4.5,6.8c3,3.1,3.4-0.7,4.1-2c1.2-2.3,6.5-5.2,8.7-5.1c0.1,1-0.2,1.2-0.8,1.8l-1.3,1.2c-0.8,0.7-1.5,2-2.1,2.8
		c-0.9,1.2-1.2,1.9-1.8,3.2c-0.3,0.6-0.5,1-0.8,1.6c-1.3,3.5-1.9,7.5-1,11.4c1,4.8,4.4,9,8.7,11.7c3.5,2.2,7.8,3.5,12.1,3.1
		c4.9-0.5,2.7-0.1,5.4-2.1c3.2-2.4-0.6-4-0.8-4.1c0-1.3,0.2-2.4,0.4-3.7c0.2-1.6,0.4-1.5,0.4-3.5c0-2.6,0.1-5.3,0-7.9
		c-0.1-3.2-0.5-5.1-0.6-7.3c-0.1-3.6,0.5-3.7-0.8-4.9l-1-0.9c0.1-1.4,1.2-2.6,2-3.7c3.7-4.8,2.9-5.7,1-12.5c-0.8-2.8-2-4.6-4.4-6.5
		c-0.7-0.5-0.9-0.7-1.5-1.2c-0.4-0.4-1.2-0.8-1.6-1c-3-1.9-4.5-2.6-8.3-2C114.2,65,104.6,63,95,64.3c-0.7,0.1-1.1,0.4-2,0.7
		c-1,0.2-1.2,0.4-2,0.7c-0.7,0.3-1.2,0.6-1.7,1c-1,0.7-0.6,0.6-1.1,1.6c-1.2,2.3-2.6,4.3-4.4,6.4c-0.4,0.4-0.7,1-1.2,1.5
		c-0.5,0.6-0.7,1-1.2,1.5C79.9,80,79.7,82,79,83.4c-0.5,1.2-1.5,2.2-2.3,3.1c-1.8,2-4.5,5.6-5.6,7.9c-1.4,2.7-2,6-1.8,9.1
		c0.1,1,0.3,1.2,0.4,2.3s1.1,5.9,1.5,6.7c0.5,1.2,2,1.7,3.1,2.3c0.7,0.4,2.7,1.8,3.1,2.3c0.5,1,0.4,8.6-0.7,9.5
		c-0.8-0.4-0.9-1.5-1.2-2.3c-0.1-0.3-0.4-0.7-0.6-1.1c-0.3-0.7-0.2-0.7-0.9-1c-0.5,0.2-0.7,0.7-0.8,1.4c-0.2,1.8,0.1,4,0.8,5.6
		c2,3.7,2.3,3.4,6,4.6c0.7,0.2,0.7,0.4,1.6,0.5l3.5,0.8c1.3,0.4,5.3,1.5,5.9,2.3c-0.4,0.2-0.1,0.2-0.8,0.2c-0.9,0.1-1.4-0.3-2.3-0.5
		c-2.3-0.3-7.3-0.5-9.2,0.9c-0.2,1.3,0,2.4,0.7,3.5c0.2,0.3,0.4,0.4,0.7,0.6c1.2,0.9,2.7,1.2,4.5,1.2c2,0,3.4,0.3,5,0.5
		c0.9,0.1,2-0.1,2.6,0.2c0,0,0.4,0.2,0.5,0.2c0.5,0.3,0.8,0.4,1.1,0.8c-1.6,0.4-3.5-0.1-5.2,0.2c-0.6,0.1-1.2,0.4-2,0.6
		c-1.9,0.4-3.9,1.3-5.6,2.4c-0.5,0.3-2.7,2.2-3.1,2.2c-1,0-2.9-3.7-5.9-5.4c-0.7-0.4-1.6-1-2.6-1c-0.9,1-0.6,3.2-0.6,4.9
		c0,1.6-0.1,4,0.2,5.4l1.2,4.5c0.2,0.7,0.6,1.3,1,1.9c0.5,0.9,0.5,1.2,1.5,1.2c0.2-1.2-0.4-3.2,0.2-4.1c0.9,0,0.7,0.2,1,1.2l0.9,4.8
		c0,2,0.7,5.1,2.2,5.6c0.4-0.5,0.7-1.3,0.8-2c0.2-1.3,0.1-2.7,0.1-4l1-0.7c0.4,0.7,0.2,0.9,0.4,1.6c0.2,0.7,0.4,0.6,0.5,1.4
		c0.4,1.8-0.1,8.3,4,8.2c1.2-2.3-0.7-5,0.5-8.4c0.2-0.7,0.1-0.5,0.7-0.6c0.5,1.2,0.5,3.4,0.9,4.5c0.5,1.3,0.5,3.1,0.8,4.6
		s0.3,3.2,0.9,4.5c0.4,0.8,0.3,1.2,1.1,1.6c0.5,0.4,1.3,0.5,2.1,0.4c0.3-2.3-0.1-3.2-0.4-5.1c-0.2-0.8-0.1-1.8-0.1-2.6
		c0.1-1,0.2-1.4,1.2-1.5c0.2,0.4,0.1,0.5,0.3,0.9c0.4,1,0.5,1.2,0.6,2.4c0.1,1.6,0.4,2.3,0.5,3.7c0.1,1.8,1.2,4.7,3.4,4.6
		c0.7-1.7-0.7-5.1-0.1-7.6c0.7,0.1,1,1.1,1.2,1.6c0.7,2.4,0.5,2.7,1.5,4.8c0.4,0.9,0.7,1.3,1.7,1.2c0.1-1-0.4-2,0.9-1.9
		c2,0.1,1.6,2.1,2.7,3.1c1.2,1,3.5,1,4.9,0.7c1.2-0.3,0.8-0.4,2.2-0.6c2.4-0.2,1-0.4,5.1-0.6c0.1-1.2-3.7-2.9-4.7-3.8
		c-4.3-3.8-6.2-4.8-3.7-11.4c1.3-3.4,0.4-5,1.8-6.7c1.3-1.5,3.4-2.6,2.5-5.5c-0.2-0.7-0.1-1.2-0.4-1.8c-0.4-1-1-2-1.2-3
		c-0.1-0.6-0.1-0.4-0.2-0.9c-0.8-1.8-0.4-6.8-0.1-8.7c0.2-1,0.4-2.3,0.8-3.4c0.4-1,0.4-2.9,0.3-3.9c-1.4-0.2-1.9,0.4-2.9,0.7
		l-0.7,0.3c-0.2,0.1,0.1,0-0.5,0.2c-0.5,0.2-0.3,0-0.7,0.2c-0.9,0.5-0.9,0.4-1.9,0.6c-0.7,0.2-0.4,0.4-1.2,0.5
		c-0.5,0.1-1.1,0.1-1.6,0.1c-0.3,0.1-0.4,0.1-0.8,0.1c-0.7-0.1-0.7-0.1-0.6-0.6s1-1.1,1.5-1.3c1.2-0.6,3.4-0.5,5.5-2.7
		c0.7-0.7,0.7-0.6,1.3-1.5c1-1.6,3.2-3.6,3.2-5.7c-2.8-0.2-2.6,2.1-4.5,2.6c0.1-1.2,0.4-2.1,0.6-3.2c0.1-0.9,0.2-0.4,0.5-1.2
		c0.5-1.4,0.5-7.1-1-7.1c-0.7,0.2-1.1,0.9-1.6,1.4s-0.9,1.3-1.3,1.8c-0.8,1-1.6,2.6-2.9,3.1c0.1-1.3,1.3-3.4,2-4.6l1.8-4.5
		c0.5-3.1,0.7-2,0.6-5.7c0-1.5,0.5-1.3,0.7-2.6c0.3-2-1.4-2.5-2.8-3.4c-3.5-2.2-5.9-5.8-8.3-9c-0.7-0.9-1.6-2-1.8-3.2
		c0.8,0.4,1.6,1.6,2.3,2.3C97,93.4,97.9,94.2,99.1,94.3L99.1,94.3L99.1,94.3z"/>
	<path class="st1" d="M174.8,152.9c1.3-2.7,2.1-10,2.1-13.2c0-1,0.1-1.2-0.4-1.8c-0.7-0.9-0.4-0.5-1.5-1c-1.6-0.7-4-1.1-5.9-1.6
		c-0.7-0.2-1.6-0.1-2.4-0.1c-3.4-0.1-6.4-0.3-9.8-0.4c-6.5,0-13.8,0.3-20.3,0c-3.2-0.2-6.5-0.1-9.9-0.1c-3.6-0.1-6.2,0.5-9.5,0.6
		c-1.5,2.1-1.2,1.8-1.6,3.6c-0.1,0.4-0.4,0.7-0.5,1.2c-0.2,0.5-0.1,1-0.3,1.5c-0.7,2.2-0.4,1.8-0.4,4.6c0,2-0.4,4.8,0.4,6.4
		c2.7,5.9,2.1,5.3,8.5,5.3c9.7,0,7.9-0.1,8.8-4.6c0.2-0.8,0.3-2.3,0.4-3.1c0.1-1.3,0-2,0.9-2.6c0.5,0.2,0.2,0.1,0.5,0.5
		c0.4,0.6,0.5,1.3,0.5,2.1c0,1.5-1.6,6.8-0.4,9c1.8,0.1,2.1,0.2,3.5,0.5c1.2,0.2,6.4,0.2,7.9,0.1c3-0.1,1.3,0.5,3.1,0.7
		c1.2,0.2,2.1,0.5,3.5,0.5c2.2,0.1,5.1,0.1,7.1,0.9l2.7,1c3.5,0.5,7.6-1.1,8.4-3.6c0.5-1.5-0.4-2.1-0.9-2.8
		c-0.9-1.3,0.1-2.3,0.4-3.2c0.3-1.2-0.1-2.1,0.4-3.5c0.3-0.9,0.2-0.8,0.3-1.8c0.1-1.1,0.2-0.5,0.4-1.5c0.2-1.1,0.3-1.8,1-3
		c0.4,0.4,0.5,0.4,0.5,1.3l-0.1,4.6c0,1.4-0.2,1.5,0.5,2.4C173.7,152.5,173.4,152.8,174.8,152.9L174.8,152.9L174.8,152.9z"/>
	<path class="st1" d="M178.7,127.4c0.7-2.1,1.3-4.2,1.5-6.6c0.1-1.2,0.5-2,0.6-3.5c0.1-1.4,0.2-2.4,0.2-3.7c0.1-2.6,0.2-5.1,0.2-7.9
		c0-3.8,0.2-2.9-1.4-4.6c-2.4-2.6-1.9,3.2-2.6,4.1c-0.2-1-0.4-1.2-0.7-2c-0.4-0.9,0-1.2-0.5-2c-0.6-1-2-2-3-2.1
		c-2.2-0.2-7.6-0.4-9.5,0.4c-0.7,0.2,0,0.2-1,0.3c-0.4,0.1-0.9,0.1-1.3,0.1c-0.7,0.1-1.3,0.4-2,0.5l-12.4,2.9
		c-0.8,1.4-0.5,0.4-0.9,2.4c-0.1,0.6-0.4,0.7-0.7,2.4c-0.5-0.5-0.2,0.3-0.5-0.9c0,0,0-0.7,0-0.8c0-0.6,0-1.2,0-1.8
		c0-1.7-0.2-1.2-0.9-2.2c-1.5-0.1-1.2-0.1-2,0.5c-1,0.7-1.5,1-2.2,2.4c-1.3,2.9-0.8,10.2-0.2,13.4c0.4,2.6,0.3,3.8-1.6,5.6l-3.1,2.1
		l-3.1,1l-5.4,0.1c-6.7-0.2-7.7-3.5-11.6-3.2c-0.8,1.4-0.5,2.9-0.3,4.3c0.2,1.5,0.1,0.6,0.6,1.8c0.7,1.6,0.7,1.3,1.9,1.8
		c0.7,0.3-0.2,0.1,0.9,0.4c1.5,0.3,5.7,0.2,7.1,0.1c0.9-0.1,1.2-0.4,2-0.5s1.5-0.1,2.3-0.2c5.3-0.9,8.2,0.1,13.5,0.1
		c3.3,0,6.5-0.1,9.7-0.2c3.3-0.1,5.9-0.5,9.3-0.2c0.7,0.1,1.5,0.3,2.2,0.1s1.6-0.7,1.9-1.3l0.6-1.2c1.2-2,1.8-5.2,2.6-7.1
		c0.3-0.8,0.2-1.2,1-1.2c0.7,1.7-1.6,7.6,1.8,7.9c1.8,0.2,2.2-1.3,3.2-1.8s1.2-0.1,1.9,0.3C177.3,127.5,177.9,127.5,178.7,127.4
		L178.7,127.4L178.7,127.4z"/>
	<path class="st1" d="M138.9,162.2c-4.3,0-4.2-0.4-5.6-0.5c-3.4-0.2-2,0.1-5.5-0.5c-1.2-0.2-2.5-0.1-3.7-0.3c-2-0.4-7.5-0.4-9.4,0.5
		c-1.3,0.5-2.3,0-3.4,2.5c-0.5,1.2-0.4,2-0.9,3.2l-1,5.1c-0.3,1.2-0.5,0.6-0.5,1.4c-0.1,0.5,2.7,5.3,3.8,1.2c0.9-3.3,0.2-2.4,1-4.3
		c0.6-1.5,0.7-4.1,2.4-4.8l-1,4.8c-0.5,1.6-0.4,3-0.7,4.7c-0.4,1.5,0,4.8,2.1,5.9c3.4,1.8,2.1-2,2.3-3.7c0.1-1.1,0.2-2.4,0.2-3.7
		c0.1-0.9,0.1-1,0.4-1.7c0.2-0.6,0.2-0.9,0.4-1.5c0.7-1.9,0.7-2.4,1.3-2.4c-0.1,2.6-0.5,9.6,0.2,11.6c0.7,2.1,0.2,1.3,1.2,2
		c4.9,3.5,4.1,3.3,11.4,3c2.6-0.1,3.1-0.2,5.2,0.7c3.5,1.5,6.2,0.6,9.7-0.7l4.4-1.4c7-2,6-3.4,7.1-6.4c0.2-0.4,0.1-0.8,0.2-1.3
		c0.4-1.8,1.2-6.1,0.1-7.7c-2.7-3.8-4.8-1.1-8.6-2.8l-5.3-2.2c-0.5-0.1-0.5-0.3-0.8-0.4C144.8,162,140.3,162.2,138.9,162.2
		L138.9,162.2L138.9,162.2z"/>
	<path class="st1" d="M137.8,71.8c-0.3,1.5,1.1,3.8,1.3,5.9c0.1,1.2,0.4,0.9,0.6,3.1c0.1,1,0.2,0.5,0.4,1.5l0.7,4.9
		c0.1,2,0.2,5.4-0.3,7.2c-0.2,0.5-0.4,2.6-0.4,3.3c1.2,0.9,5.7,0.6,7.4,0.7c4.2,0,3-0.4,7-0.5c1.5,0,1.9-0.2,3.2-0.5
		c1.6-0.4,4-0.4,6.1-1.2c1.3-0.5,2.3,0.1,2.3-1.4c-1.6-1.2-2.7,0-2.2-1.8c0.2-1,0.2-3.4,0.1-4.4c-0.3-1.9-0.9-4-0.4-5.3l0.2-0.3
		c1.2,0.7,0.9,2.2,1.3,3.3c0.4,0.9,0.2,0.7,0.4,1.8c0.1,1.2,0.4,0.4,0.6,1.6c0.4,2,2.3,5,3.5,0.3c0.2-0.8,0.4-3.2,0.2-4
		c-0.2-0.5-0.4,0-0.4-1.8c-0.1-1.1,0.1-1-0.4-1.9c-0.4-0.9-0.7-2.3-1.2-3.3c-0.5-1.1-1.1-2-1.6-3c-1.2-2.2-2.3-3.5-4.2-5
		c-1.2-1-1.9-0.7-3.7-0.7c-2.3,0-8.3,0-10.4,0.6C146.2,71.1,140.3,70.1,137.8,71.8L137.8,71.8L137.8,71.8z"/>
</g>
</svg>
